<?xml version="1.0" encoding="UTF-8"?>
<!DOCTYPE svg PUBLIC "-//W3C//DTD SVG 1.1//EN" "http://www.w3.org/Graphics/SVG/1.1/DTD/svg11.dtd">
<!-- Creator: CorelDRAW 2017 -->
<svg xmlns="http://www.w3.org/2000/svg" xml:space="preserve" width="100%" height="100%" version="1.1" style="shape-rendering:geometricPrecision; text-rendering:geometricPrecision; image-rendering:optimizeQuality; fill-rule:evenodd; clip-rule:evenodd"
viewBox="0 0 10243 2550"
 xmlns:xlink="http://www.w3.org/1999/xlink">
 <defs>
  <style type="text/css">
   <![CDATA[
    .fil0 {fill:black}
    .fil2 {fill:white}
    .fil1 {fill:white;fill-rule:nonzero}
   ]]>
  </style>
 </defs>
 <g id="Layer_x0020_1">
  <metadata id="CorelCorpID_0Corel-Layer"/>
  <g id="_2757340493344">
   <path class="fil0" d="M1275 0c425,0 801,208 1032,527l7492 0c244,0 444,200 444,444l0 610c0,244 -200,444 -444,444l-7492 0c-232,319 -608,527 -1032,527 -704,0 -1275,-571 -1275,-1275 0,-704 571,-1275 1275,-1275z"/>
   <path class="fil1" d="M3491 1575c-7,4 -14,7 -20,10 -6,3 -13,4 -21,4 -28,-21 -43,-58 -44,-111 -1,-52 10,-119 33,-200 4,-2 6,-7 6,-13l-10 -11c-3,0 -6,0 -8,1 -3,1 -4,3 -6,8 -19,14 -40,28 -62,43 -23,15 -46,29 -71,42 -24,13 -49,23 -74,31 -25,8 -50,12 -74,12 -61,0 -107,-31 -138,-93l-9 -16 -9 14c-2,3 -5,9 -10,18 -4,9 -9,20 -13,31 -4,12 -8,24 -12,35 -3,12 -4,23 -4,31 -7,7 -13,14 -21,23 -7,9 -13,18 -16,30 -1,6 -1,11 2,16 -1,7 -5,12 -10,15 -3,4 -6,7 -9,10 -3,3 -6,7 -8,10 -1,4 -2,7 -3,11 0,4 -1,7 -2,11 0,5 -1,10 -2,14 -13,26 -22,42 -30,50 -7,8 -17,11 -30,11 -6,0 -15,-1 -28,-3 -10,-10 -18,-24 -26,-42 -8,-18 -13,-37 -17,-57 -4,-21 -6,-41 -6,-62 0,-21 4,-39 10,-54 0,-1 3,-8 9,-22 6,-14 13,-32 22,-54 9,-22 19,-46 31,-73 12,-27 23,-53 35,-78 12,-25 23,-48 33,-69 11,-21 20,-37 27,-48 6,-9 11,-17 16,-25 5,-8 9,-15 14,-22 13,-23 26,-41 38,-56 12,-15 30,-27 53,-35 16,7 28,14 35,23l2 12c3,7 7,11 13,11 8,2 15,4 20,6 5,2 12,3 18,5 5,6 10,13 14,21 6,9 12,17 17,26 5,8 10,17 13,25 3,8 5,17 5,26 0,9 -1,18 -5,27l1 11c4,7 4,16 2,27 -1,5 -1,10 -1,16 0,6 1,12 2,18 13,10 25,15 35,15 12,0 22,-3 32,-8 10,-5 19,-11 28,-17 6,-4 12,-8 18,-11 6,-3 12,-5 18,-6 13,-12 25,-23 35,-33 11,-10 22,-19 33,-29 22,-17 43,-36 63,-57 20,-21 37,-46 49,-77 7,-4 15,-7 23,-7 8,0 16,2 25,6 9,4 17,7 25,11 2,1 4,3 6,3 2,1 4,1 5,2 0,7 3,13 9,18 3,2 5,4 6,4 1,1 2,1 3,2 11,6 18,12 21,18 5,17 14,30 27,38 -1,7 -1,14 1,20 2,6 4,13 7,19 1,2 1,4 2,7 1,2 2,5 3,8l-21 -2 3 21c1,10 1,21 -3,34 -3,12 -7,22 -11,30 1,19 1,34 1,44 0,11 0,20 -1,30 -1,9 -4,18 -6,26 -2,8 -6,17 -10,26 3,47 -2,89 -16,128 -14,38 -28,74 -42,108 -1,4 -3,7 -5,11 -2,4 -4,7 -5,11 -7,2 -12,5 -17,7 -5,2 -11,5 -16,8z"/>
   <path id="1" class="fil1" d="M3878 1518c4,22 2,39 -4,51 -6,13 -15,22 -26,28 -11,6 -24,10 -39,10 -15,1 -28,0 -42,-2 -7,-10 -14,-23 -20,-38 -6,-15 -11,-31 -16,-48 -5,-16 -10,-33 -14,-49 -4,-16 -7,-30 -10,-43 4,-9 6,-19 7,-30 1,-11 2,-23 2,-34 0,-12 1,-24 1,-36 0,-12 1,-24 3,-34 5,-31 13,-60 23,-88 10,-28 18,-57 24,-86 1,-7 1,-13 -2,-19 -3,-6 -3,-11 -2,-16 1,-3 3,-5 7,-6 4,-1 6,-3 7,-7 2,-8 3,-15 2,-20 -1,-5 0,-11 4,-19 4,-6 8,-14 14,-26 5,-11 7,-23 6,-35 7,-4 13,-10 19,-15 6,-6 12,-11 18,-16 6,-5 13,-9 21,-13 8,-4 17,-6 28,-6 6,7 10,15 12,24 2,9 4,18 5,26 2,9 4,17 8,25 4,8 10,14 18,18 0,6 0,13 0,22 0,9 0,17 1,26 1,8 2,16 5,23 2,7 7,12 13,14 -13,35 -25,70 -37,104 -11,34 -21,69 -28,103 -7,35 -12,69 -14,104 -2,35 1,70 7,106z"/>
   <path id="2" class="fil1" d="M4230 1396c-7,1 -11,5 -14,11 -3,6 -6,13 -8,19 -3,7 -5,13 -8,18 -3,6 -6,8 -11,8 -1,6 -3,11 -6,15 -3,4 -6,9 -9,14 -3,5 -5,10 -7,15 -1,5 -1,12 2,19 -6,4 -10,11 -11,19 -1,8 -3,16 -5,23 -2,7 -5,13 -9,18 -4,5 -12,7 -24,7 -2,3 -2,5 -1,6 1,1 2,3 3,8 -8,-1 -14,-1 -18,2 -4,2 -9,4 -15,5 -14,-4 -25,-12 -34,-23 -9,-11 -17,-23 -24,-37 -7,-14 -13,-27 -19,-41 -5,-14 -11,-26 -16,-36 2,-8 3,-16 1,-24 -1,-8 -4,-14 -8,-19 36,-76 75,-157 117,-243 42,-86 82,-171 120,-255 17,7 33,14 50,22 16,8 31,18 45,29 14,11 25,24 35,38 10,14 16,30 19,47 -1,4 -3,6 -5,5 -2,-1 -3,-1 -5,2 3,4 4,6 5,8 0,1 0,3 0,4 0,1 -1,4 -1,6 0,3 1,6 3,10 -3,-1 -5,0 -6,1 -1,1 -4,1 -7,0 3,8 4,15 3,20 -1,5 -3,10 -5,14 -2,4 -4,8 -5,13 -1,5 -1,11 1,18 -2,0 -4,1 -5,2 -1,1 -2,2 -3,3 -1,1 -1,2 -3,3 -1,1 -3,1 -5,1 2,16 3,32 2,48 -1,16 -1,32 -2,49 0,16 0,34 1,51 1,18 3,36 8,55 26,-15 47,-35 63,-59 16,-24 29,-51 38,-81 10,-30 17,-62 22,-96 5,-34 11,-69 16,-105 7,-7 12,-15 15,-24 4,-10 7,-19 10,-30 3,-11 6,-21 9,-32 3,-10 7,-20 11,-29 11,1 20,5 28,10 8,5 15,11 21,17 7,6 13,12 21,18 7,5 16,9 27,10 9,12 17,24 24,36 7,12 12,24 14,37 -4,6 -6,13 -8,20 -2,7 -4,15 -6,22 -2,7 -5,14 -9,20 -4,6 -9,12 -15,16 -2,19 -5,36 -8,52 -3,16 -7,31 -10,46 -3,15 -6,31 -8,48 -2,16 -3,34 -2,54 -6,17 -12,35 -19,54 -7,19 -12,36 -15,51 -12,10 -21,21 -27,34 -7,13 -14,26 -21,39 -3,3 -5,4 -5,2 -1,-1 -3,-2 -8,-3 1,3 1,5 0,7 -1,1 -2,3 -3,4 -1,1 -2,3 -2,5 0,2 0,5 1,9 -10,4 -19,10 -27,18 -8,8 -17,15 -26,22 -9,7 -20,11 -33,13 -13,2 -29,0 -50,-8 -30,-22 -56,-47 -79,-75 -23,-29 -42,-62 -56,-102z"/>
   <path id="3" class="fil1" d="M5260 1069c-18,0 -38,1 -59,4 -21,3 -42,5 -62,8 -15,2 -29,4 -42,5 -13,1 -26,3 -37,3 -5,16 -10,30 -15,43 -5,13 -11,24 -16,36 -6,12 -11,25 -16,38 -5,13 -9,27 -14,41 -7,12 -13,22 -18,32 -5,10 -9,21 -12,33 -9,11 -15,22 -20,35 -4,12 -8,22 -10,31l-4 13c-4,4 -7,8 -8,10 -1,2 -3,5 -6,7 -1,8 -3,16 -8,24 -1,4 -2,7 -3,10 -1,3 -1,6 -1,7 0,7 -2,12 -5,14 1,4 1,7 0,11 -1,4 -1,8 -2,12 -2,9 -3,16 -2,21 2,3 4,5 6,8 2,2 3,5 4,9 4,3 8,5 10,5 3,2 7,5 13,8l10 11c4,21 0,38 -10,50 -11,14 -30,21 -56,21l-13 0c-4,-4 -6,-7 -7,-9 -6,-2 -11,-4 -14,-5 -4,-1 -7,-4 -10,-9 -10,-4 -17,-8 -23,-11l-10 -5c0,-8 0,-13 0,-13 -5,-7 -9,-14 -11,-22 -3,-8 -5,-16 -6,-24 -1,-7 -3,-13 -5,-18 -2,-6 -4,-11 -7,-15 -1,-42 3,-78 12,-107 10,-29 19,-57 30,-84 6,-15 12,-29 17,-44 6,-15 11,-30 15,-46l10 -11c5,-12 9,-21 13,-29 3,-8 7,-16 10,-24 2,-5 4,-10 6,-15 2,-5 4,-9 5,-13 -4,0 -8,0 -12,1 -4,0 -7,1 -11,1 -4,1 -8,1 -12,2 -4,0 -7,1 -11,1 -5,0 -9,0 -11,-1 -8,4 -17,6 -26,6l-11 0c-2,0 -4,0 -6,-1 -2,0 -4,-1 -5,-1 -7,0 -13,1 -18,3 -9,0 -17,0 -25,0l-11 0c-1,0 -3,0 -5,1 -2,0 -4,1 -5,1 -5,0 -11,-1 -16,-2 -6,-1 -12,-3 -19,-7 -9,-12 -15,-18 -18,-18l-10 -13c-1,-4 -2,-9 -3,-13 -1,-4 -3,-9 -4,-14 -3,-7 -6,-15 -8,-24 -3,-8 -4,-18 -4,-30 1,-6 2,-10 4,-13 2,-3 4,-5 6,-8l3 -16 14 1 31 0c23,0 47,-1 71,-3 24,-2 49,-4 75,-6 15,-1 29,-3 44,-4 15,-1 30,-3 46,-4 3,-7 6,-13 9,-18l11 -5c13,-1 22,1 28,5 5,4 10,8 14,12 16,-1 32,-3 49,-5 16,-2 33,-4 50,-7 25,-4 50,-7 75,-10 25,-3 49,-4 73,-4 10,0 20,0 30,1 10,1 18,2 26,3l11 8c2,4 5,8 9,12 4,4 8,7 13,11 9,8 18,18 26,29 9,11 12,27 10,48 -6,9 -10,14 -13,15l-10 13 -11 -1c-4,0 -8,1 -12,2 -4,1 -7,2 -11,4 -3,1 -6,3 -9,4 -3,1 -6,2 -10,3 -7,0 -12,0 -16,0 -4,0 -8,-1 -13,-1z"/>
   <path id="4" class="fil1" d="M6212 1069c-18,0 -38,1 -59,4 -21,3 -42,5 -62,8 -15,2 -29,4 -42,5 -13,1 -26,3 -37,3 -5,16 -10,30 -15,43 -5,13 -11,24 -16,36 -6,12 -11,25 -16,38 -5,13 -9,27 -14,41 -7,12 -13,22 -18,32 -5,10 -9,21 -12,33 -9,11 -15,22 -20,35 -4,12 -8,22 -10,31l-4 13c-4,4 -7,8 -8,10 -1,2 -3,5 -6,7 -1,8 -3,16 -8,24 -1,4 -2,7 -3,10 -1,3 -1,6 -1,7 0,7 -2,12 -5,14 1,4 1,7 0,11 -1,4 -1,8 -2,12 -2,9 -3,16 -2,21 2,3 4,5 6,8 2,2 3,5 4,9 4,3 8,5 10,5 3,2 7,5 13,8l10 11c4,21 0,38 -10,50 -11,14 -30,21 -56,21l-13 0c-4,-4 -6,-7 -7,-9 -6,-2 -11,-4 -14,-5 -4,-1 -7,-4 -10,-9 -10,-4 -17,-8 -23,-11l-10 -5c0,-8 0,-13 0,-13 -5,-7 -9,-14 -11,-22 -3,-8 -5,-16 -6,-24 -1,-7 -3,-13 -5,-18 -2,-6 -4,-11 -7,-15 -1,-42 3,-78 12,-107 10,-29 19,-57 30,-84 6,-15 12,-29 17,-44 6,-15 11,-30 15,-46l10 -11c5,-12 9,-21 13,-29 3,-8 7,-16 10,-24 2,-5 4,-10 6,-15 2,-5 4,-9 5,-13 -4,0 -8,0 -12,1 -4,0 -7,1 -11,1 -4,1 -8,1 -12,2 -4,0 -7,1 -11,1 -5,0 -9,0 -11,-1 -8,4 -17,6 -26,6l-11 0c-2,0 -4,0 -6,-1 -2,0 -4,-1 -5,-1 -7,0 -13,1 -18,3 -9,0 -17,0 -25,0l-11 0c-1,0 -3,0 -5,1 -2,0 -4,1 -5,1 -5,0 -11,-1 -16,-2 -6,-1 -12,-3 -19,-7 -9,-12 -15,-18 -18,-18l-10 -13c-1,-4 -2,-9 -3,-13 -1,-4 -3,-9 -4,-14 -3,-7 -6,-15 -8,-24 -3,-8 -4,-18 -4,-30 1,-6 2,-10 4,-13 2,-3 4,-5 6,-8l3 -16 14 1 31 0c23,0 47,-1 71,-3 24,-2 49,-4 75,-6 15,-1 29,-3 44,-4 15,-1 30,-3 46,-4 3,-7 6,-13 9,-18l11 -5c13,-1 22,1 28,5 5,4 10,8 14,12 16,-1 32,-3 49,-5 16,-2 33,-4 50,-7 25,-4 50,-7 75,-10 25,-3 49,-4 73,-4 10,0 20,0 30,1 10,1 18,2 26,3l11 8c2,4 5,8 9,12 4,4 8,7 13,11 9,8 18,18 26,29 9,11 12,27 10,48 -6,9 -10,14 -13,15l-10 13 -11 -1c-4,0 -8,1 -12,2 -4,1 -7,2 -11,4 -3,1 -6,3 -9,4 -3,1 -6,2 -10,3 -7,0 -12,0 -16,0 -4,0 -8,-1 -13,-1z"/>
   <path id="5" class="fil1" d="M6303 1481c-8,29 -15,51 -21,66 -6,15 -16,30 -28,46 -10,-1 -16,0 -20,3 -4,4 -8,7 -12,10 -7,1 -11,1 -14,0 -3,-1 -6,-3 -8,-5 -2,-2 -5,-4 -8,-5 -3,-2 -8,-3 -15,-3 -1,-6 -3,-11 -5,-16 -2,-5 -7,-7 -15,-5 1,-6 2,-11 1,-15 -1,-4 -2,-8 -3,-11 -1,-3 -2,-7 -3,-10 -1,-3 0,-7 1,-13 -4,0 -7,-3 -9,-8 -2,-5 -5,-10 -8,-15 2,-13 4,-26 7,-37 2,-12 5,-23 8,-33 3,-10 6,-20 8,-31 2,-10 1,-21 -3,-32 3,2 5,2 7,-2 1,-3 3,-8 3,-13 1,-5 1,-11 1,-16 0,-5 0,-10 -1,-14 7,-19 13,-38 18,-59 5,-20 9,-40 13,-60 4,-20 8,-39 13,-58 4,-19 10,-36 18,-52 8,-1 17,-1 27,3 10,3 16,7 18,13 19,-15 36,-32 50,-53 15,-21 30,-41 45,-61 15,-20 32,-37 51,-52 19,-15 42,-24 71,-27 15,11 31,22 49,33 18,11 33,26 44,44 6,3 11,6 15,9 4,3 9,7 15,10l0 13c9,8 16,17 21,28 5,11 10,22 15,34 4,12 9,24 13,36 4,12 10,24 15,35 -1,4 -2,7 -2,9 0,2 1,5 1,8 1,3 2,6 3,9 1,3 1,7 0,12 -2,32 -13,58 -31,78 -19,20 -41,36 -67,49 -26,13 -54,24 -84,32 -30,9 -57,18 -81,28 0,3 1,4 4,4 3,0 4,2 3,6 18,11 31,20 42,26 10,7 20,12 29,16 9,4 19,8 30,12 11,3 25,7 44,11 19,4 34,8 44,10 10,3 20,5 29,7 9,2 18,3 27,4 9,1 22,2 39,4 7,7 12,14 17,24 5,9 8,18 9,27 1,9 2,18 1,26 -1,8 -3,15 -8,20 1,2 2,3 5,3 3,0 5,0 8,1 -4,3 -8,7 -11,11 -3,4 -6,9 -9,13 -3,4 -6,8 -10,12 -4,3 -9,5 -15,6 -23,9 -51,9 -85,2 -34,-8 -78,-22 -130,-42 -26,-10 -48,-19 -64,-27 -16,-8 -31,-15 -43,-23 -12,-8 -23,-16 -33,-25 -10,-9 -22,-19 -36,-32zm156 -375c-8,12 -17,22 -27,32 -10,10 -19,19 -29,29 -9,10 -17,21 -24,33 -7,12 -13,26 -15,42 25,-3 52,-10 80,-21 28,-11 54,-22 79,-32 -3,-23 -11,-41 -24,-55 -13,-14 -26,-23 -40,-27z"/>
   <path id="6" class="fil1" d="M7312 1503c-4,12 -11,25 -19,38 -8,13 -18,24 -30,34 -11,10 -24,18 -38,24 -14,7 -29,10 -44,11 -9,-2 -16,-4 -19,-7 -3,-3 -7,-5 -10,-7 -2,-1 -4,-3 -6,-4 -2,-1 -4,-2 -5,-3l-13 -6 4 -14c1,-6 1,-10 -1,-14 -2,-3 -7,-8 -13,-14 -2,-2 -4,-4 -7,-7 -2,-2 -4,-4 -5,-7l-19 -21 30 -8c18,-5 30,-12 37,-20 6,-8 9,-22 7,-41 -15,-3 -27,-3 -37,-1 -10,2 -20,5 -30,8 -13,4 -27,7 -40,9 -13,2 -28,4 -44,4 -6,0 -11,0 -16,-1 -5,0 -11,-1 -16,-1l-11 -2c-1,-8 -3,-13 -4,-14 -1,-1 -3,-2 -4,-4 -4,-4 -7,-9 -11,-15 -4,-6 -5,-14 -3,-24 -4,-7 -6,-13 -7,-20 -4,9 -8,18 -10,27l-4 11 -11 2c-1,1 -3,2 -3,5 -1,2 -1,4 -1,6l-6 19c-1,1 -3,3 -4,4 -1,1 -3,2 -4,4 -1,7 -3,13 -5,20 -2,7 -4,13 -7,19 -4,9 -7,19 -9,28 -2,9 -3,18 -3,27l-4 12c-4,4 -8,8 -12,10 -4,2 -9,5 -13,7 -1,1 -3,3 -6,4 -3,1 -4,2 -6,3l-3 12 -13 2c-8,1 -14,3 -17,3 -3,1 -7,1 -11,1l-11 -1c-8,-7 -14,-12 -19,-16 -4,-4 -9,-8 -15,-12 -7,-9 -10,-15 -11,-20 -1,-4 -1,-8 -2,-12 -1,-4 -2,-8 -3,-11 0,-3 -1,-5 -3,-7l-14 -13 12 -10 1 -19c15,-37 30,-73 46,-107 16,-34 33,-69 51,-105 6,-12 11,-23 17,-35 6,-12 11,-23 17,-35 -1,-2 -1,-5 -1,-8 0,-3 1,-6 2,-10 8,-12 15,-24 20,-33 5,-10 10,-20 16,-30 6,-13 12,-24 18,-36 6,-12 14,-24 24,-36l18 -8c2,-1 5,-2 8,-3 3,-1 6,-2 10,-2l16 2c20,-10 38,-23 54,-40 15,-17 31,-38 47,-62l11 -15 14 9c4,2 9,4 15,6 7,2 14,4 21,6 13,3 25,6 37,10 12,4 21,9 28,16 4,12 7,21 8,26 1,6 2,12 3,18 2,12 4,25 6,37 2,12 3,26 4,41 4,13 7,25 9,37 3,12 5,24 7,37 4,18 7,35 11,51 4,16 8,32 14,46 6,0 10,0 11,1 4,-1 7,-2 11,-3 4,-1 9,-1 14,-2l12 -1 4 11c1,4 4,7 11,11 10,1 16,3 21,6 4,3 8,7 12,10 3,3 6,5 9,7l16 7 -9 16c-7,13 -18,26 -31,38 -13,12 -29,22 -45,30 1,4 1,9 1,13 0,4 1,8 3,13 2,13 4,25 5,38 1,13 1,27 0,40l-2 4zm-316 -189c22,-1 42,-3 60,-5 18,-2 38,-5 60,-9 -5,-22 -11,-45 -16,-68 -6,-24 -12,-47 -19,-71l-7 11c-15,15 -29,32 -42,52 -14,19 -25,37 -35,54 -4,7 -9,13 -13,20 -4,7 -8,13 -12,20 4,-1 9,-1 13,-1 4,0 8,0 11,-1z"/>
   <path id="7" class="fil1" d="M7923 1299c-1,4 -1,7 -2,9 -1,2 -1,5 -2,7 -1,2 -1,5 -1,8 0,3 0,7 0,13 -22,39 -49,71 -83,97 -33,26 -70,49 -109,69 -40,20 -81,38 -124,55 -43,16 -85,34 -126,53 -18,-4 -31,-12 -40,-22 -9,-10 -16,-22 -21,-36 -5,-13 -8,-28 -10,-45 -2,-16 -3,-33 -5,-51 2,-8 5,-15 9,-20 4,-5 6,-13 6,-24 6,-19 12,-38 18,-56 6,-18 10,-37 11,-56 2,-6 6,-10 12,-12 4,-35 4,-71 1,-107 -3,-36 -9,-70 -18,-101 1,-7 2,-13 3,-16 1,-3 1,-6 -1,-7 -1,-6 1,-9 6,-9 5,0 10,0 15,0 0,-11 -2,-22 -6,-33 -4,-11 -8,-23 -12,-37 5,-11 8,-22 10,-32 1,-11 5,-20 10,-28 39,12 77,27 113,45 36,18 72,30 107,38 26,19 53,38 81,56 28,18 53,39 75,61 23,22 42,48 57,76 15,28 24,62 26,102zm-259 60c15,-6 30,-12 45,-18 15,-7 29,-14 42,-23 13,-8 24,-18 34,-29 10,-11 19,-24 25,-39 -4,-9 -10,-17 -18,-24 -7,-7 -15,-13 -22,-20 -7,-6 -14,-13 -21,-19 -7,-7 -13,-15 -17,-24 -10,-1 -18,-4 -25,-8 -7,-4 -14,-8 -21,-12 -7,-4 -14,-8 -22,-12 -8,-4 -17,-6 -27,-7 -16,-8 -30,-14 -43,-17 -13,-4 -22,-8 -29,-14 -5,0 -9,1 -12,3 7,28 13,54 16,78 4,24 6,49 6,73 0,24 -1,49 -4,75 -3,26 -7,53 -12,83 7,-1 14,-2 20,-5 6,-3 12,-5 18,-8 6,-3 13,-6 20,-8 7,-3 15,-4 25,-5 2,-4 5,-8 9,-11 4,-3 8,-6 11,-10z"/>
   <path id="8" class="fil1" d="M8173 1518c4,22 2,39 -4,51 -6,13 -15,22 -26,28 -11,6 -24,10 -39,10 -15,1 -28,0 -42,-2 -7,-10 -14,-23 -20,-38 -6,-15 -11,-31 -16,-48 -5,-16 -10,-33 -14,-49 -4,-16 -7,-30 -10,-43 4,-9 6,-19 7,-30 1,-11 2,-23 2,-34 0,-12 1,-24 1,-36 0,-12 1,-24 3,-34 5,-31 13,-60 23,-88 10,-28 18,-57 24,-86 1,-7 1,-13 -2,-19 -3,-6 -3,-11 -2,-16 1,-3 3,-5 7,-6 4,-1 6,-3 7,-7 2,-8 3,-15 2,-20 -1,-5 0,-11 4,-19 4,-6 8,-14 14,-26 5,-11 7,-23 6,-35 7,-4 13,-10 19,-15 6,-6 12,-11 18,-16 6,-5 13,-9 21,-13 8,-4 17,-6 28,-6 6,7 10,15 12,24 2,9 4,18 5,26 2,9 4,17 8,25 4,8 10,14 18,18 0,6 0,13 0,22 0,9 0,17 1,26 1,8 2,16 5,23 2,7 7,12 13,14 -13,35 -25,70 -37,104 -11,34 -21,69 -28,103 -7,35 -12,69 -14,104 -2,35 1,70 7,106z"/>
   <path id="9" class="fil1" d="M8524 1396c-7,1 -11,5 -14,11 -3,6 -6,13 -8,19 -3,7 -5,13 -8,18 -3,6 -6,8 -11,8 -1,6 -3,11 -6,15 -3,4 -6,9 -9,14 -3,5 -5,10 -7,15 -1,5 -1,12 2,19 -6,4 -10,11 -11,19 -1,8 -3,16 -5,23 -2,7 -5,13 -9,18 -4,5 -12,7 -24,7 -2,3 -2,5 -1,6 1,1 2,3 3,8 -8,-1 -14,-1 -18,2 -4,2 -9,4 -15,5 -14,-4 -25,-12 -34,-23 -9,-11 -17,-23 -24,-37 -7,-14 -13,-27 -19,-41 -5,-14 -11,-26 -16,-36 2,-8 3,-16 1,-24 -1,-8 -4,-14 -8,-19 36,-76 75,-157 117,-243 42,-86 82,-171 120,-255 17,7 33,14 50,22 16,8 31,18 45,29 14,11 25,24 35,38 10,14 16,30 19,47 -1,4 -3,6 -5,5 -2,-1 -3,-1 -5,2 3,4 4,6 5,8 0,1 0,3 0,4 0,1 -1,4 -1,6 0,3 1,6 3,10 -3,-1 -5,0 -6,1 -1,1 -4,1 -7,0 3,8 4,15 3,20 -1,5 -3,10 -5,14 -2,4 -4,8 -5,13 -1,5 -1,11 1,18 -2,0 -4,1 -5,2 -1,1 -2,2 -3,3 -1,1 -1,2 -3,3 -1,1 -3,1 -5,1 2,16 3,32 2,48 -1,16 -1,32 -2,49 0,16 0,34 1,51 1,18 3,36 8,55 26,-15 47,-35 63,-59 16,-24 29,-51 38,-81 10,-30 17,-62 22,-96 5,-34 11,-69 16,-105 7,-7 12,-15 15,-24 4,-10 7,-19 10,-30 3,-11 6,-21 9,-32 3,-10 7,-20 11,-29 11,1 20,5 28,10 8,5 15,11 21,17 7,6 13,12 21,18 7,5 16,9 27,10 9,12 17,24 24,36 7,12 12,24 14,37 -4,6 -6,13 -8,20 -2,7 -4,15 -6,22 -2,7 -5,14 -9,20 -4,6 -9,12 -15,16 -2,19 -5,36 -8,52 -3,16 -7,31 -10,46 -3,15 -6,31 -8,48 -2,16 -3,34 -2,54 -6,17 -12,35 -19,54 -7,19 -12,36 -15,51 -12,10 -21,21 -27,34 -7,13 -14,26 -21,39 -3,3 -5,4 -5,2 -1,-1 -3,-2 -8,-3 1,3 1,5 0,7 -1,1 -2,3 -3,4 -1,1 -2,3 -2,5 0,2 0,5 1,9 -10,4 -19,10 -27,18 -8,8 -17,15 -26,22 -9,7 -20,11 -33,13 -13,2 -29,0 -50,-8 -30,-22 -56,-47 -79,-75 -23,-29 -42,-62 -56,-102z"/>
   <path id="10" class="fil1" d="M9708 1398c-17,31 -40,56 -69,73 -28,17 -60,31 -94,43 -34,11 -70,21 -108,30 -38,9 -74,20 -109,34 -10,0 -19,0 -27,1 -8,1 -15,2 -22,3 -7,1 -14,2 -20,3 -7,1 -14,2 -22,3 -3,-1 -5,0 -5,2 -1,2 -2,3 -3,5 -12,2 -24,3 -33,3 -10,0 -18,0 -25,0 -9,0 -18,1 -27,4 -9,3 -17,4 -25,3 -55,-3 -97,-22 -128,-59 -31,-36 -48,-86 -52,-150 1,-4 0,-6 -2,-7 -2,-1 -3,-2 -5,-3 0,-7 1,-13 3,-19 2,-5 2,-12 1,-20 19,-40 40,-77 64,-112 24,-35 53,-65 86,-91 5,-4 10,-9 13,-13 4,-4 7,-9 10,-13 3,-4 7,-8 12,-11 4,-3 10,-6 16,-7 15,-18 33,-34 55,-48 21,-15 43,-29 67,-42 23,-13 46,-27 69,-40 23,-14 44,-29 63,-46 8,4 14,5 18,3 4,-1 8,-1 12,0 5,11 12,19 21,23 9,4 18,9 27,14 9,5 18,10 26,17 8,7 14,15 18,26 -4,0 -6,2 -6,5 0,3 1,7 3,10 1,3 2,7 1,10 0,3 -3,5 -8,5 1,4 3,6 7,6 4,0 6,2 6,6 0,4 -1,7 -3,9 -2,2 -2,6 -1,11 -15,10 -31,19 -49,27 -18,9 -36,18 -56,28 -19,10 -39,20 -60,32 -21,11 -41,24 -61,39 -20,15 -40,31 -60,49 -20,18 -40,37 -59,56 -19,20 -37,40 -54,61 -17,21 -31,41 -43,62 1,4 3,7 5,8 2,2 4,5 5,8 23,1 45,1 65,-1 20,-2 40,0 61,4 2,-1 4,-4 4,-7 1,-3 3,-5 5,-7 42,-4 80,-11 116,-20 36,-9 72,-19 109,-29 -6,-2 -11,-4 -16,-6 -5,-2 -9,-4 -14,-5 -4,-4 -4,-7 1,-9 4,-3 7,-5 10,-8 -10,-6 -18,-13 -25,-22 -6,-9 -10,-20 -12,-35 4,-4 7,-8 7,-13 0,-5 -2,-9 -7,-12 -3,-1 -5,-1 -5,0 -1,1 -1,2 -2,3 0,1 -1,3 -2,4 -1,1 -2,1 -5,-1 1,-7 2,-12 5,-16 3,-4 5,-9 6,-15l75 -50c8,6 18,12 30,19 12,7 24,14 37,21 13,7 26,14 39,21 14,7 26,14 38,20 10,4 19,10 27,18 8,7 16,15 23,22 7,8 15,15 22,22 8,7 17,14 27,19 -1,10 -1,17 1,23 2,6 3,13 2,22z"/>
   <path class="fil2" d="M1042 2134c70,-24 140,-47 210,-71 22,65 44,131 66,196 52,-18 104,-35 156,-53 -22,-65 -44,-130 -66,-196 37,-12 73,-25 110,-37 22,65 44,131 66,196 52,-18 104,-35 156,-53 -23,-68 -46,-137 -69,-205 99,-50 183,-117 233,-201 49,-85 64,-188 22,-311 -30,-88 -87,-156 -160,-197 -72,-41 -160,-55 -249,-35 0,-1 -1,-2 -1,-4 127,-91 190,-226 137,-381 -36,-106 -100,-171 -179,-206 -78,-35 -171,-39 -262,-23 -23,-68 -46,-135 -69,-203 -52,18 -104,35 -156,53 22,66 44,131 66,196 -37,12 -73,25 -110,37 -22,-65 -44,-131 -66,-196 -52,17 -104,35 -156,52 22,66 44,131 66,196 -70,24 -140,47 -210,71 77,229 155,458 232,687 77,229 155,458 232,687zm-148 -1248c67,-23 134,-45 202,-68 92,-31 164,-39 217,-24 53,15 89,52 109,111 35,103 -23,200 -186,255 -74,25 -149,50 -223,75 -39,-116 -78,-233 -118,-349zm189 559c78,-26 157,-53 235,-79 99,-33 176,-45 234,-31 58,14 98,55 122,127 31,90 4,156 -46,204 -50,48 -123,79 -187,100 -75,25 -150,51 -225,76 -45,-132 -89,-264 -134,-396z"/>
  </g>
 </g>
</svg>
